<svg width="90" height="90" viewBox="0 0 90 90" fill="none" xmlns="http://www.w3.org/2000/svg">
<rect width="90" height="90" fill="#FBD652"/>
<path d="M15.671 27V18.09H20.808V27H19.202V19.245H17.277V27H15.671ZM22.1485 27V18.09H24.7665C25.3019 18.09 25.7345 18.189 26.0645 18.387C26.4019 18.585 26.6475 18.8747 26.8015 19.256C26.9629 19.63 27.0435 20.0847 27.0435 20.62C27.0435 21.1993 26.9445 21.6687 26.7465 22.028C26.5485 22.38 26.2699 22.6367 25.9105 22.798C25.5585 22.9593 25.1405 23.04 24.6565 23.04H23.7765V27H22.1485ZM23.7765 21.896H24.3925C24.6859 21.896 24.9132 21.8557 25.0745 21.775C25.2432 21.687 25.3569 21.5513 25.4155 21.368C25.4815 21.1773 25.5145 20.9243 25.5145 20.609C25.5145 20.2863 25.4889 20.026 25.4375 19.828C25.3935 19.6227 25.2909 19.4723 25.1295 19.377C24.9755 19.2817 24.7299 19.234 24.3925 19.234H23.7765V21.896ZM27.9713 27V18.09H29.3023V23.711L31.7443 18.09H32.8333V27H31.4913V21.291L29.0383 27H27.9713ZM34.2233 27V18.09H35.7853V25.834H37.1273V18.09H38.6783V25.834H39.9543V18.09H41.5163V27H34.2233ZM42.881 27V18.09H46.621V19.234H44.509V21.797H46.17V22.93H44.509V25.878H46.643V27H42.881ZM46.97 27V25.834C47.1754 25.8413 47.3477 25.8303 47.487 25.801C47.6337 25.7643 47.7547 25.6873 47.85 25.57C47.9527 25.4527 48.037 25.273 48.103 25.031C48.169 24.7817 48.224 24.448 48.268 24.03C48.312 23.612 48.3597 23.0803 48.411 22.435L48.697 18.09H53.031V27H51.414V19.311H50.138L49.94 22.633C49.896 23.2857 49.8447 23.8613 49.786 24.36C49.7347 24.8587 49.6504 25.284 49.533 25.636C49.423 25.9807 49.2654 26.2593 49.06 26.472C48.8547 26.6847 48.5834 26.835 48.246 26.923C47.9087 27.0037 47.4834 27.0293 46.97 27ZM18.091 42.121C17.4603 42.121 16.958 42.0037 16.584 41.769C16.21 41.5343 15.9423 41.197 15.781 40.757C15.6197 40.317 15.539 39.7963 15.539 39.195V35.862C15.539 35.2607 15.6197 34.7473 15.781 34.322C15.9423 33.8893 16.21 33.5593 16.584 33.332C16.958 33.1047 17.4603 32.991 18.091 32.991C18.7363 32.991 19.2423 33.1047 19.609 33.332C19.983 33.5593 20.2507 33.8893 20.412 34.322C20.5807 34.7473 20.665 35.2607 20.665 35.862V39.206C20.665 39.8 20.5807 40.317 20.412 40.757C20.2507 41.1897 19.983 41.527 19.609 41.769C19.2423 42.0037 18.7363 42.121 18.091 42.121ZM18.091 40.922C18.3623 40.922 18.5603 40.8633 18.685 40.746C18.817 40.6287 18.905 40.4673 18.949 40.262C18.993 40.0567 19.015 39.833 19.015 39.591V35.488C19.015 35.2387 18.993 35.015 18.949 34.817C18.905 34.619 18.817 34.465 18.685 34.355C18.5603 34.2377 18.3623 34.179 18.091 34.179C17.8343 34.179 17.64 34.2377 17.508 34.355C17.376 34.465 17.288 34.619 17.244 34.817C17.2 35.015 17.178 35.2387 17.178 35.488V39.591C17.178 39.833 17.1963 40.0567 17.233 40.262C17.277 40.4673 17.365 40.6287 17.497 40.746C17.629 40.8633 17.827 40.922 18.091 40.922ZM21.3632 43.694V40.845H21.6822C21.8289 40.7643 21.9682 40.658 22.1002 40.526C22.2396 40.3867 22.3642 40.2033 22.4742 39.976C22.5842 39.7487 22.6832 39.459 22.7712 39.107C22.8666 38.7477 22.9472 38.3113 23.0132 37.798C23.0866 37.2847 23.1416 36.676 23.1782 35.972L23.3762 33.09H27.3142V40.845H28.2492V43.694H27.1382L27.0172 42H22.6282L22.4742 43.694H21.3632ZM23.2002 40.845H25.7742V34.256H24.6522L24.5532 36.225C24.5239 36.929 24.4762 37.5267 24.4102 38.018C24.3442 38.502 24.2672 38.9053 24.1792 39.228C24.0912 39.5433 23.9922 39.8 23.8822 39.998C23.7796 40.196 23.6696 40.3573 23.5522 40.482C23.4349 40.6067 23.3176 40.7277 23.2002 40.845ZM29.1637 42V33.09H30.7807V36.819H32.6067V33.09H34.2237V42H32.6067V37.974H30.7807V42H29.1637ZM35.136 42L36.918 33.09H38.656L40.438 42H38.931L38.579 39.943H37.028L36.665 42H35.136ZM37.193 38.909H38.403L37.798 35.169L37.193 38.909ZM40.7181 42L42.6871 37.49L40.8391 33.09H42.3681L43.9851 37.325H44.0621V33.09H45.3711V37.325H45.4591L47.0651 33.09H48.6051L46.7571 37.49L48.7261 42H47.2301L45.4701 37.611H45.3711V42H44.0621V37.611H43.9741L42.2141 42H40.7181ZM48.9384 43.694V40.845H49.2574C49.4041 40.7643 49.5434 40.658 49.6754 40.526C49.8148 40.3867 49.9394 40.2033 50.0494 39.976C50.1594 39.7487 50.2584 39.459 50.3464 39.107C50.4418 38.7477 50.5224 38.3113 50.5884 37.798C50.6618 37.2847 50.7168 36.676 50.7534 35.972L50.9514 33.09H54.8894V40.845H55.8244V43.694H54.7134L54.5924 42H50.2034L50.0494 43.694H48.9384ZM50.7754 40.845H53.3494V34.256H52.2274L52.1284 36.225C52.0991 36.929 52.0514 37.5267 51.9854 38.018C51.9194 38.502 51.8424 38.9053 51.7544 39.228C51.6664 39.5433 51.5674 39.8 51.4574 39.998C51.3548 40.196 51.2448 40.3573 51.1274 40.482C51.0101 40.6067 50.8928 40.7277 50.7754 40.845ZM56.7389 42V33.09H58.3559V36.83H58.7519C59.3606 36.83 59.8666 36.9143 60.2699 37.083C60.6732 37.2443 60.9776 37.5157 61.1829 37.897C61.3882 38.271 61.4909 38.777 61.4909 39.415C61.4909 39.9137 61.4249 40.3317 61.2929 40.669C61.1682 40.999 60.9849 41.263 60.7429 41.461C60.5009 41.659 60.2076 41.7983 59.8629 41.879C59.5182 41.9597 59.1259 42 58.6859 42H56.7389ZM58.3559 40.9H58.6969C59.0049 40.9 59.2542 40.856 59.4449 40.768C59.6356 40.68 59.7749 40.526 59.8629 40.306C59.9509 40.0787 59.9912 39.7707 59.9839 39.382C59.9839 38.92 59.8922 38.568 59.7089 38.326C59.5256 38.084 59.1809 37.963 58.6749 37.963H58.3559V40.9ZM62.3269 42V33.09H63.9439V42H62.3269ZM18.091 57.121C17.4603 57.121 16.958 57.0037 16.584 56.769C16.21 56.5343 15.9423 56.197 15.781 55.757C15.6197 55.317 15.539 54.7963 15.539 54.195V50.862C15.539 50.2607 15.6197 49.7473 15.781 49.322C15.9423 48.8893 16.21 48.5593 16.584 48.332C16.958 48.1047 17.4603 47.991 18.091 47.991C18.7363 47.991 19.2423 48.1047 19.609 48.332C19.983 48.5593 20.2507 48.8893 20.412 49.322C20.5807 49.7473 20.665 50.2607 20.665 50.862V54.206C20.665 54.8 20.5807 55.317 20.412 55.757C20.2507 56.1897 19.983 56.527 19.609 56.769C19.2423 57.0037 18.7363 57.121 18.091 57.121ZM18.091 55.922C18.3623 55.922 18.5603 55.8633 18.685 55.746C18.817 55.6287 18.905 55.4673 18.949 55.262C18.993 55.0567 19.015 54.833 19.015 54.591V50.488C19.015 50.2387 18.993 50.015 18.949 49.817C18.905 49.619 18.817 49.465 18.685 49.355C18.5603 49.2377 18.3623 49.179 18.091 49.179C17.8343 49.179 17.64 49.2377 17.508 49.355C17.376 49.465 17.288 49.619 17.244 49.817C17.2 50.015 17.178 50.2387 17.178 50.488V54.591C17.178 54.833 17.1963 55.0567 17.233 55.262C17.277 55.4673 17.365 55.6287 17.497 55.746C17.629 55.8633 17.827 55.922 18.091 55.922ZM24.2672 57.121C23.6146 57.121 23.1012 56.9927 22.7272 56.736C22.3606 56.4793 22.1039 56.131 21.9572 55.691C21.8106 55.2437 21.7372 54.7303 21.7372 54.151V50.972C21.7372 50.3633 21.8106 49.8353 21.9572 49.388C22.1039 48.9407 22.3606 48.596 22.7272 48.354C23.1012 48.112 23.6146 47.991 24.2672 47.991C24.8832 47.991 25.3636 48.0973 25.7082 48.31C26.0602 48.5153 26.3096 48.8123 26.4562 49.201C26.6029 49.5897 26.6762 50.0407 26.6762 50.554V51.302H25.1142V50.532C25.1142 50.2827 25.0996 50.0553 25.0702 49.85C25.0482 49.6447 24.9786 49.4833 24.8612 49.366C24.7512 49.2413 24.5569 49.179 24.2782 49.179C23.9996 49.179 23.7942 49.245 23.6622 49.377C23.5376 49.5017 23.4569 49.674 23.4202 49.894C23.3836 50.1067 23.3652 50.3487 23.3652 50.62V54.492C23.3652 54.8147 23.3909 55.0823 23.4422 55.295C23.4936 55.5003 23.5852 55.658 23.7172 55.768C23.8566 55.8707 24.0436 55.922 24.2782 55.922C24.5496 55.922 24.7402 55.8597 24.8502 55.735C24.9676 55.603 25.0409 55.4307 25.0702 55.218C25.0996 55.0053 25.1142 54.767 25.1142 54.503V53.7H26.6762V54.415C26.6762 54.943 26.6066 55.4123 26.4672 55.823C26.3279 56.2263 26.0822 56.5453 25.7302 56.78C25.3856 57.0073 24.8979 57.121 24.2672 57.121ZM28.7007 57V49.289H27.2817V48.09H31.7257V49.289H30.3287V57H28.7007ZM31.6126 57L33.3946 48.09H35.1326L36.9146 57H35.4076L35.0556 54.943H33.5046L33.1416 57H31.6126ZM33.6696 53.909H34.8796L34.2746 50.169L33.6696 53.909ZM37.1946 57V55.834C37.4 55.8413 37.5723 55.8303 37.7116 55.801C37.8583 55.7643 37.9793 55.6873 38.0746 55.57C38.1773 55.4527 38.2616 55.273 38.3276 55.031C38.3936 54.7817 38.4486 54.448 38.4926 54.03C38.5366 53.612 38.5843 53.0803 38.6356 52.435L38.9216 48.09H43.2556V57H41.6386V49.311H40.3626L40.1646 52.633C40.1206 53.2857 40.0693 53.8613 40.0106 54.36C39.9593 54.8587 39.875 55.284 39.7576 55.636C39.6476 55.9807 39.49 56.2593 39.2846 56.472C39.0793 56.6847 38.808 56.835 38.4706 56.923C38.1333 57.0037 37.708 57.0293 37.1946 57ZM47.0299 57.121C46.3773 57.121 45.8639 56.9927 45.4899 56.736C45.1233 56.4793 44.8666 56.131 44.7199 55.691C44.5733 55.2437 44.4999 54.7303 44.4999 54.151V50.972C44.4999 50.3633 44.5733 49.8353 44.7199 49.388C44.8666 48.9407 45.1233 48.596 45.4899 48.354C45.8639 48.112 46.3773 47.991 47.0299 47.991C47.6459 47.991 48.1263 48.0973 48.4709 48.31C48.8229 48.5153 49.0723 48.8123 49.2189 49.201C49.3656 49.5897 49.4389 50.0407 49.4389 50.554V51.302H47.8769V50.532C47.8769 50.2827 47.8623 50.0553 47.8329 49.85C47.8109 49.6447 47.7413 49.4833 47.6239 49.366C47.5139 49.2413 47.3196 49.179 47.0409 49.179C46.7623 49.179 46.5569 49.245 46.4249 49.377C46.3003 49.5017 46.2196 49.674 46.1829 49.894C46.1463 50.1067 46.1279 50.3487 46.1279 50.62V54.492C46.1279 54.8147 46.1536 55.0823 46.2049 55.295C46.2563 55.5003 46.3479 55.658 46.4799 55.768C46.6193 55.8707 46.8063 55.922 47.0409 55.922C47.3123 55.922 47.5029 55.8597 47.6129 55.735C47.7303 55.603 47.8036 55.4307 47.8329 55.218C47.8623 55.0053 47.8769 54.767 47.8769 54.503V53.7H49.4389V54.415C49.4389 54.943 49.3693 55.4123 49.2299 55.823C49.0906 56.2263 48.8449 56.5453 48.4929 56.78C48.1483 57.0073 47.6606 57.121 47.0299 57.121ZM50.0224 57L51.8044 53.018C51.4377 52.8273 51.1407 52.534 50.9134 52.138C50.686 51.7347 50.5724 51.2397 50.5724 50.653C50.5724 50.0663 50.6787 49.586 50.8914 49.212C51.104 48.8307 51.423 48.5483 51.8484 48.365C52.281 48.1817 52.8274 48.09 53.4874 48.09H55.5444V57H53.9274V53.392H53.4104C53.3957 53.392 53.3627 53.392 53.3114 53.392C53.26 53.392 53.227 53.392 53.2124 53.392L51.7934 57H50.0224ZM53.5644 52.248H53.9274V49.223H53.5314C53.0547 49.223 52.6954 49.3403 52.4534 49.575C52.2114 49.8023 52.0904 50.1617 52.0904 50.653C52.0904 51.159 52.1967 51.5513 52.4094 51.83C52.6294 52.1087 53.0144 52.248 53.5644 52.248ZM15.693 72V63.09H17.31V66.819H19.136V63.09H20.753V72H19.136V67.974H17.31V72H15.693ZM21.6653 72L23.4473 63.09H25.1853L26.9673 72H25.4603L25.1083 69.943H23.5573L23.1943 72H21.6653ZM23.7223 68.909H24.9323L24.3273 65.169L23.7223 68.909ZM27.8634 72V63.09H30.0524C30.4484 63.09 30.804 63.1267 31.1194 63.2C31.442 63.2733 31.717 63.398 31.9444 63.574C32.179 63.7427 32.3587 63.9737 32.4834 64.267C32.608 64.5603 32.6704 64.9307 32.6704 65.378C32.6704 65.7373 32.619 66.0453 32.5164 66.302C32.421 66.5587 32.278 66.764 32.0874 66.918C31.8967 67.0647 31.6584 67.1637 31.3724 67.215C31.7244 67.2737 32.014 67.3983 32.2414 67.589C32.476 67.7723 32.6484 68.0143 32.7584 68.315C32.8757 68.6157 32.9344 68.9787 32.9344 69.404C32.9344 69.8293 32.8794 70.207 32.7694 70.537C32.6667 70.8597 32.509 71.131 32.2964 71.351C32.091 71.5637 31.8307 71.725 31.5154 71.835C31.2074 71.945 30.8444 72 30.4264 72H27.8634ZM29.4914 70.856H30.1074C30.5987 70.856 30.9324 70.7387 31.1084 70.504C31.2844 70.262 31.3724 69.8917 31.3724 69.393C31.3724 69.0337 31.3284 68.744 31.2404 68.524C31.1597 68.2967 31.0204 68.128 30.8224 68.018C30.6317 67.908 30.375 67.853 30.0524 67.853H29.4914V70.856ZM29.4914 66.731H30.0414C30.364 66.731 30.6134 66.6833 30.7894 66.588C30.9654 66.4927 31.0864 66.346 31.1524 66.148C31.2257 65.95 31.2624 65.7007 31.2624 65.4C31.2624 65.0847 31.2074 64.8427 31.0974 64.674C30.9947 64.498 30.837 64.3807 30.6244 64.322C30.4117 64.256 30.1404 64.223 29.8104 64.223H29.4914V66.731ZM36.3844 72.121C35.7318 72.121 35.2184 71.9927 34.8444 71.736C34.4778 71.4793 34.2211 71.131 34.0744 70.691C33.9278 70.2437 33.8544 69.7303 33.8544 69.151V65.972C33.8544 65.3633 33.9278 64.8353 34.0744 64.388C34.2211 63.9407 34.4778 63.596 34.8444 63.354C35.2184 63.112 35.7318 62.991 36.3844 62.991C37.0004 62.991 37.4808 63.0973 37.8254 63.31C38.1774 63.5153 38.4268 63.8123 38.5734 64.201C38.7201 64.5897 38.7934 65.0407 38.7934 65.554V66.302H37.2314V65.532C37.2314 65.2827 37.2168 65.0553 37.1874 64.85C37.1654 64.6447 37.0958 64.4833 36.9784 64.366C36.8684 64.2413 36.6741 64.179 36.3954 64.179C36.1168 64.179 35.9114 64.245 35.7794 64.377C35.6548 64.5017 35.5741 64.674 35.5374 64.894C35.5008 65.1067 35.4824 65.3487 35.4824 65.62V69.492C35.4824 69.8147 35.5081 70.0823 35.5594 70.295C35.6108 70.5003 35.7024 70.658 35.8344 70.768C35.9738 70.8707 36.1608 70.922 36.3954 70.922C36.6668 70.922 36.8574 70.8597 36.9674 70.735C37.0848 70.603 37.1581 70.4307 37.1874 70.218C37.2168 70.0053 37.2314 69.767 37.2314 69.503V68.7H38.7934V69.415C38.7934 69.943 38.7238 70.4123 38.5844 70.823C38.4451 71.2263 38.1994 71.5453 37.8474 71.78C37.5028 72.0073 37.0151 72.121 36.3844 72.121ZM39.9269 72V63.09H43.6669V64.234H41.5549V66.797H43.2159V67.93H41.5549V70.878H43.6889V72H39.9269ZM44.6539 72V63.09H48.4599V64.289H46.2709V72H44.6539ZM48.8418 73.694V70.845H49.1608C49.3074 70.7643 49.4468 70.658 49.5788 70.526C49.7181 70.3867 49.8428 70.2033 49.9528 69.976C50.0628 69.7487 50.1618 69.459 50.2498 69.107C50.3451 68.7477 50.4258 68.3113 50.4918 67.798C50.5651 67.2847 50.6201 66.676 50.6568 65.972L50.8548 63.09H54.7928V70.845H55.7278V73.694H54.6168L54.4958 72H50.1068L49.9528 73.694H48.8418ZM50.6788 70.845H53.2528V64.256H52.1308L52.0318 66.225C52.0024 66.929 51.9548 67.5267 51.8888 68.018C51.8228 68.502 51.7458 68.9053 51.6578 69.228C51.5698 69.5433 51.4708 69.8 51.3608 69.998C51.2581 70.196 51.1481 70.3573 51.0308 70.482C50.9134 70.6067 50.7961 70.7277 50.6788 70.845ZM56.1692 72L57.9512 63.09H59.6892L61.4712 72H59.9642L59.6122 69.943H58.0612L57.6982 72H56.1692ZM58.2262 68.909H59.4362L58.8312 65.169L58.2262 68.909Z" fill="#3E245B"/>
</svg>
